<?xml version="1.0" standalone="no"?>
<!DOCTYPE svg PUBLIC "-//W3C//DTD SVG 20010904//EN"
 "http://www.w3.org/TR/2001/REC-SVG-20010904/DTD/svg10.dtd">
<svg version="1.0" xmlns="http://www.w3.org/2000/svg"
 width="200.000000pt" height="100.000000pt" viewBox="0 0 425.000000 414.000000"
 preserveAspectRatio="xMidYMid meet">
<metadata>
Created by potrace 1.15, written by Peter Selinger 2001-2017
</metadata>
<g transform="translate(0.000000,414.000000) scale(0.100000,-0.100000)"
fill="#fff" stroke="none">
<path d="M2055 3430 c-93 -17 -229 -61 -311 -101 l-82 -40 -88 12 c-117 15
-306 6 -409 -21 -183 -47 -322 -140 -411 -275 -20 -30 -35 -57 -33 -60 3 -2
38 5 79 16 99 26 230 25 230 -1 0 -4 -26 -20 -57 -36 -88 -42 -201 -160 -247
-257 -101 -209 -99 -495 4 -830 33 -105 106 -293 157 -405 l30 -64 -1 194 c-1
264 26 433 90 575 l26 58 14 -49 c17 -66 77 -150 139 -196 51 -38 95 -64 99
-58 1 2 9 35 19 73 36 144 124 288 225 371 64 53 190 115 271 134 222 52 430
-145 588 -555 19 -49 37 -92 39 -94 8 -9 148 106 225 186 130 135 199 268 199
383 0 68 16 66 94 -12 77 -77 137 -192 196 -375 46 -140 106 -392 116 -487 11
-99 17 -98 72 15 119 242 167 507 143 787 -13 153 -42 255 -110 389 -186 369
-495 617 -876 705 -101 23 -344 33 -430 18z"/>
<path d="M1692 2298 c-6 -6 -12 -16 -12 -22 0 -5 36 -48 80 -97 44 -48 80 -91
80 -96 0 -4 -38 -24 -85 -43 -47 -19 -84 -38 -82 -42 4 -12 220 -248 227 -248
4 0 15 9 25 20 18 20 18 22 -31 73 -27 29 -67 71 -88 94 l-39 42 46 21 c26 11
67 29 93 40 l45 20 -111 122 c-62 68 -117 124 -124 126 -6 1 -17 -3 -24 -10z"/>
<path d="M1377 1775 c-122 -34 -230 -113 -299 -219 -53 -82 -78 -169 -78 -270
0 -141 42 -245 142 -351 48 -52 80 -75 146 -107 78 -38 94 -42 182 -46 162 -8
275 33 386 140 96 92 154 221 154 344 0 45 4 56 26 73 60 47 134 15 134 -58 0
-67 19 -144 54 -216 85 -178 254 -285 450 -285 134 0 233 36 338 122 184 152
226 446 94 652 -216 335 -712 306 -882 -51 -45 -95 -41 -90 -63 -76 -35 22
-86 25 -126 9 -21 -9 -39 -15 -40 -14 -1 2 -8 19 -15 38 -42 112 -143 226
-243 274 -111 54 -254 70 -360 41z m270 -95 c136 -47 237 -163 269 -308 30
-136 -8 -272 -105 -375 -171 -180 -441 -181 -611 -1 -98 104 -138 244 -106
378 59 251 311 390 553 306z m1148 8 c64 -16 115 -47 176 -104 117 -112 159
-281 106 -432 -44 -127 -135 -222 -255 -264 -207 -73 -422 14 -519 210 -37 74
-38 79 -38 187 0 106 2 113 34 180 93 188 288 276 496 223z"/>
</g>
</svg>
