<?xml version="1.0" standalone="no"?>
<!DOCTYPE svg PUBLIC "-//W3C//DTD SVG 20010904//EN"
 "http://www.w3.org/TR/2001/REC-SVG-20010904/DTD/svg10.dtd">
<svg version="1.0" xmlns="http://www.w3.org/2000/svg"
 width="107.000000pt" height="97.000000pt" viewBox="0 0 107.000000 97.000000"
 preserveAspectRatio="xMidYMid meet">
<metadata>
Created by potrace 1.15, written by Peter Selinger 2001-2017
</metadata>
<g transform="translate(0.000000,97.000000) scale(0.100000,-0.100000)"
fill="#000000" stroke="none">
<path d="M0 485 l0 -485 535 0 535 0 0 485 0 485 -182 -1 -183 0 49 -20 c198
-80 313 -280 286 -497 -11 -85 -52 -202 -71 -202 -4 0 -13 26 -19 58 -28 136
-67 239 -107 274 -18 16 -19 15 -37 -34 -19 -53 -112 -158 -140 -158 -8 0 -24
25 -36 55 -43 107 -111 175 -174 175 -76 0 -162 -73 -192 -162 -8 -26 -18 -48
-20 -48 -14 0 -59 38 -75 64 l-18 30 -12 -30 c-7 -16 -15 -81 -19 -144 l-6
-115 -26 56 c-50 107 -73 197 -72 294 0 103 18 150 78 203 20 17 36 33 36 35
0 3 -19 1 -42 -3 -24 -5 -45 -6 -47 -4 -11 11 29 60 69 86 59 38 100 48 195
49 55 0 94 6 125 19 l45 19 -237 0 -238 1 0 -485z m403 -119 c31 -13 97 -78
97 -96 0 -5 15 -10 33 -12 28 -3 35 2 59 39 39 60 94 86 173 81 50 -3 70 -10
100 -32 72 -55 94 -161 50 -246 -24 -46 -87 -83 -150 -88 -101 -8 -173 48
-201 158 -17 69 -46 58 -59 -23 -7 -45 -56 -104 -102 -123 -112 -47 -248 27
-260 140 -10 89 20 153 92 197 36 23 121 25 168 5z"/>
<path d="M252 320 c-98 -60 -94 -201 8 -252 97 -49 210 20 210 127 0 110 -125
181 -218 125z"/>
<path d="M683 324 c-74 -37 -99 -152 -47 -214 86 -102 227 -68 259 63 5 18 1
44 -10 73 -31 82 -122 117 -202 78z"/>
</g>
</svg>
